<svg width="24" height="26" viewBox="0 0 24 26" fill="none" xmlns="http://www.w3.org/2000/svg">
<path d="M17.4249 13.0001L1.41149 0.57749C0.798309 1.05702 0.385254 1.80193 0.385254 2.69004L0.385254 23.3102C0.385254 24.1983 0.798309 24.9432 1.41149 25.4221L17.4249 13.0001Z" fill="#9DC6FB"/>
<path d="M22.2718 10.6738L18.3971 8.43655L15.001 8.86124L13.8345 12.9999L14.4269 16.9622L18.3971 17.5625L22.2718 15.3259C24.0627 14.292 24.0627 11.7077 22.2718 10.6738Z" fill="#FFE07D"/>
<path d="M18.3969 8.43669L4.41416 0.363845C3.39244 -0.225675 2.22554 -0.0587559 1.41162 0.577381L13.8342 13L18.3969 8.43669Z" fill="#DD5790"/>
<path d="M18.3969 17.5627L13.8342 13L1.41162 25.422C2.22554 26.0589 3.39244 26.2258 4.41416 25.6362L18.3969 17.5627Z" fill="#95D6A4"/>
<path d="M3.41268 2.69C3.41268 2.50952 3.42944 2.33534 3.46184 2.16792L1.41164 0.577549C0.798512 1.05677 0.385254 1.80168 0.385254 2.69L0.385254 23.3102C0.385254 24.1979 0.798562 24.9429 1.41164 25.4221L3.46184 23.8318C3.42939 23.6644 3.41268 23.4901 3.41268 23.3102L3.41268 2.69Z" fill="#80B4FB"/>
<path d="M4.59236 0.466034L4.41447 0.363506C3.39275 -0.225558 2.22564 -0.0586896 1.41162 0.577448L3.41474 2.58057C3.44719 1.74039 3.85105 1.03676 4.43854 0.577448H4.43905C4.48876 0.538753 4.54005 0.501123 4.59236 0.466034Z" fill="#DA387D"/>
<path d="M4.43905 25.422L4.43956 25.4209L4.43849 25.422C3.85049 24.9627 3.44714 24.2585 3.41469 23.4189L1.41162 25.422C2.22559 26.0586 3.39275 26.2255 4.41442 25.6359L4.59231 25.5334C4.54 25.4984 4.48871 25.4607 4.43905 25.422Z" fill="#78C2A4"/>
</svg>
