<svg xmlns="http://www.w3.org/2000/svg">

<symbol id="prev" width="10" height="16" viewBox="0 0 10 16" fill="none">
    <path d="M8 14L2 8L8 2" stroke-width="2.5" stroke-linecap="round" stroke-linejoin="round"/>
</symbol>

<symbol id="next" width="10" height="16" viewBox="0 0 10 16" fill="none">
    <path d="M2 2L8 8L2 14" stroke-width="2.5" stroke-linecap="round" stroke-linejoin="round"/>
</symbol>


<symbol id="insta" width="21" height="21" viewBox="0 0 21 21" fill="none">
    <path d="M10.5 21C16.299 21 21 16.299 21 10.5C21 4.70101 16.299 0 10.5 0C4.70101 0 0 4.70101 0 10.5C0 16.299 4.70101 21 10.5 21Z" fill="#6C27B3"/>
    <path d="M15.3689 5.452C14.1144 5.61081 12.8063 5.60527 11.4899 5.47993C9.65146 5.33851 6.96461 4.49002 5.97469 6.187C4.38444 8.90371 5.16878 12.3818 5.53935 15.4597L11.0657 20.9849C16.4136 20.7009 20.6997 16.4154 20.9845 11.0677L15.3689 5.452Z" fill="#501A96"/>
    <path d="M12.9291 4.48975H8.07057C6.09608 4.48975 4.48975 6.09608 4.48975 8.07057V12.9291C4.48975 14.9035 6.09608 16.51 8.07061 16.51H12.9291C14.9035 16.51 16.51 14.9036 16.51 12.9291V8.07057C16.5099 6.09608 14.9036 4.48975 12.9291 4.48975ZM15.3007 12.9291C15.3007 14.2389 14.2389 15.3007 12.9291 15.3007H8.07061C6.76082 15.3007 5.69901 14.2389 5.69901 12.9291V8.07061C5.69901 6.76082 6.76082 5.69897 8.07061 5.69897H12.9291C14.2389 5.69897 15.3007 6.76086 15.3007 8.07061V12.9291Z" fill="white"/>
    <path d="M10.5 7.39111C8.78581 7.39111 7.39111 8.78581 7.39111 10.5C7.39111 12.2141 8.78581 13.6088 10.5 13.6088C12.2142 13.6088 13.6088 12.2142 13.6088 10.5C13.6088 8.78581 12.2142 7.39111 10.5 7.39111ZM10.5 12.3996C9.45088 12.3996 8.60034 11.5492 8.60034 10.5C8.60034 9.45084 9.45088 8.60034 10.5 8.60034C11.5492 8.60034 12.3996 9.4508 12.3996 10.5C12.3996 11.5492 11.5492 12.3996 10.5 12.3996Z" fill="white"/>
    <path d="M14.3601 7.4144C14.3601 7.82579 14.0265 8.15937 13.6151 8.15937C13.2037 8.15937 12.8701 7.82579 12.8701 7.4144C12.8701 7.00297 13.2037 6.66943 13.6151 6.66943C14.0266 6.66943 14.3601 7.00289 14.3601 7.4144Z" fill="#D1D1D1"/>
    <path d="M12.9294 4.48975H10.4766V5.69897H12.9294C14.2392 5.69897 15.301 6.76086 15.301 8.07061V12.9291C15.301 14.2389 14.2392 15.3007 12.9294 15.3007H10.4766V16.51H12.9294C14.9038 16.51 16.5102 14.9036 16.5102 12.9291V8.07057C16.5102 6.09608 14.9038 4.48975 12.9294 4.48975Z" fill="#D1D1D1"/>
    <path d="M10.5001 7.39111C10.4922 7.39111 10.4845 7.39169 10.4766 7.39169V8.60091C10.4844 8.60083 10.4922 8.60034 10.5001 8.60034C11.5492 8.60034 12.3997 9.4508 12.3997 10.5C12.3997 11.5492 11.5493 12.3996 10.5001 12.3996C10.4922 12.3996 10.4844 12.3991 10.4766 12.399V13.6082C10.4845 13.6083 10.4922 13.6088 10.5001 13.6088C12.2143 13.6088 13.6089 12.2142 13.6089 10.5C13.6089 8.78581 12.2143 7.39111 10.5001 7.39111Z" fill="#D1D1D1"/>
</symbol>

<symbol id="fb" width="21" height="21" viewBox="0 0 21 21" fill="none">
    <path d="M10.5 21C16.299 21 21 16.299 21 10.5C21 4.70101 16.299 0 10.5 0C4.70101 0 0 4.70101 0 10.5C0 16.299 4.70101 21 10.5 21Z" fill="#D22215"/>
    <path d="M15.785 6.98633C15.4701 7.08243 15.1418 7.16499 14.813 7.24723C12.4797 7.74216 9.36854 6.39874 8.02511 8.59065C6.90469 10.3336 6.55093 12.5145 5.27637 14.0729L12.0843 20.8808C16.6153 20.195 20.196 16.6137 20.8811 12.0825L15.785 6.98633Z" fill="#A81411"/>
    <path d="M14.013 6.24805H6.98709C5.60864 6.24805 4.49121 7.36552 4.49121 8.74393V12.2562C4.49121 13.6346 5.60868 14.7521 6.98709 14.7521H14.013C15.3914 14.7521 16.5089 13.6346 16.5089 12.2562V8.74393C16.5089 7.36552 15.3914 6.24805 14.013 6.24805ZM12.325 10.6709L9.03882 12.2382C8.95121 12.28 8.85002 12.2162 8.85002 12.1192V8.88662C8.85002 8.78819 8.95387 8.72441 9.04157 8.76891L12.3277 10.4342C12.4256 10.4837 12.4238 10.6238 12.325 10.6709Z" fill="white"/>
    <path d="M14.0129 6.24805H10.4292V9.47208L12.3277 10.4341C12.4255 10.4836 12.4237 10.6238 12.3249 10.6709L10.4292 11.575V14.7521H14.0129C15.3913 14.7521 16.5087 13.6346 16.5087 12.2562V8.74393C16.5087 7.36552 15.3913 6.24805 14.0129 6.24805Z" fill="#D1D1D1"/>
</symbol>

<symbol id="twi" width="21" height="21" viewBox="0 0 21 21" fill="none">
    <g clip-path="url(#clip0_1_505)">
    <path d="M10.5009 20.9998C16.2998 20.9998 21.0008 16.2988 21.0008 10.4999C21.0008 4.70097 16.2998 0 10.5009 0C4.70194 0 0.000976562 4.70097 0.000976562 10.4999C0.000976562 16.2988 4.70194 20.9998 10.5009 20.9998Z" fill="#55ACEE"/>
    <path d="M16.9318 7.54607C16.4819 7.74559 15.9979 7.88054 15.4902 7.94081C16.0085 7.6303 16.4063 7.13897 16.594 6.55257C16.109 6.84025 15.5717 7.04895 15.0002 7.16143C14.5424 6.67385 13.8901 6.36914 13.1678 6.36914C11.782 6.36914 10.6581 7.4931 10.6581 8.87891C10.6581 9.07563 10.6803 9.26711 10.7234 9.45091C8.63755 9.34628 6.78812 8.34716 5.55017 6.82827C5.33418 7.19887 5.21027 7.6303 5.21027 8.09018C5.21027 8.96071 5.65368 9.72923 6.32674 10.1792C5.91553 10.1663 5.52827 10.0534 5.19005 9.86493C5.18987 9.8756 5.18987 9.88627 5.18987 9.89675C5.18987 11.1128 6.05534 12.1271 7.20326 12.3575C6.99288 12.4151 6.77071 12.4456 6.54218 12.4456C6.38009 12.4456 6.22305 12.4301 6.06994 12.4009C6.38926 13.3978 7.31594 14.1234 8.41445 14.1438C7.55533 14.8171 6.4733 15.2182 5.29712 15.2182C5.09497 15.2182 4.8947 15.2064 4.69873 15.183C5.80884 15.8954 7.12839 16.3107 8.54565 16.3107C13.162 16.3107 15.6866 12.4864 15.6866 9.16959C15.6866 9.06084 15.6842 8.95247 15.6793 8.84504C16.1701 8.49128 16.5955 8.04937 16.9318 7.54607Z" fill="#F1F2F2"/>
    </g>
    <defs>
    <clipPath id="clip0_1_505">
    <rect width="21" height="21" fill="white"/>
    </clipPath>
    </defs>
</symbol>

<symbol id="yt" width="21" height="21" viewBox="0 0 21 21" fill="none">
    <path d="M21 10.5C21 16.2991 16.2991 21 10.5 21C4.70093 21 0 16.2991 0 10.5C0 4.70094 4.70093 0 10.5 0C16.2991 0 21 4.70094 21 10.5Z" fill="#4A7AFF"/>
    <path d="M10.9608 20.9896C16.546 20.7485 21 16.1448 21 10.5004C21 10.4595 20.9989 10.4188 20.9984 10.378L13.71 3.08936L5.91699 11.2348L10.2469 15.5647L8.25039 18.2792L10.9608 20.9896Z" fill="#0053BF"/>
    <path d="M13.7101 3.08893V5.46655C13.7101 5.46655 10.9803 5.07033 10.9803 6.83144V8.59255H13.4459L13.1378 11.2783H10.9803V18.2788H8.25056V11.2783L5.91699 11.2342V8.59255H8.2065V6.56724C8.2065 6.56724 8.05541 3.55436 11.0244 3.00097C12.2573 2.77105 13.7101 3.08893 13.7101 3.08893Z" fill="white"/>
    <path d="M13.7099 5.46655V3.08893C13.7099 3.08893 12.257 2.77105 11.0242 3.00097C10.8316 3.03685 10.6525 3.08332 10.4854 3.13827V18.2788H10.9801V11.2783H13.1374L13.4457 8.59255H10.9801C10.9801 8.59255 10.9801 8.59255 10.9801 6.83144C10.9801 5.07033 13.7099 5.46655 13.7099 5.46655Z" fill="#DCE1EB"/>
</symbol>

</svg>